# xmcd CD database file
#
# Track frame offsets:
#	183
#	21383
#	51783
#	79783
#	96558
#	119283
#	140958
#	169633
#	187145
#	205158
#	230133
#	250170
#
# Disc length: 3653 seconds
#
# Revision: 0
# Processed by: cddbd v1.5.1PL0 Copyright (c) Steve Scherf et al.
# Submitted via: CDex 1.51
#
DISCID=b30e430c
DTITLE=Sarah Vaughan - Dizionario Enciclopedico del Jazz - Volume 31
DYEAR=1991
DGENRE=Jazz
TTITLE0=Midnight Sun
TTITLE1=More Than You Know
TTITLE2=My Old Flame
TTITLE3=Body And Soul
TTITLE4=I Gotta Right To Sing The Blues
TTITLE5=If You Could See Me Now
TTITLE6=Send In The Clowns
TTITLE7=All The Things You Are
TTITLE8=I Didn't Know What Time It Was
TTITLE9=Autumn Leaves
TTITLE10=The Island
TTITLE11=Seasons
EXTD=YEAR: 1991
EXTT0=
EXTT1=
EXTT2=
EXTT3=
EXTT4=
EXTT5=
EXTT6=
EXTT7=
EXTT8=
EXTT9=
EXTT10=
EXTT11=
PLAYORDER=
